<svg width="21" height="18" viewBox="0 0 21 18" fill="none" xmlns="http://www.w3.org/2000/svg">
    <path d="M10.8 0L1.2 0C0.537258 0 0 0.537258 0 1.2L0 10.8C0 11.4627 0.537258 12 1.2 12H10.8C11.4627 12 12 11.4627 12 10.8V1.2C12 0.537258 11.4627 0 10.8 0Z" fill="white"/>
    <path d="M4.18896 7.65123L4.99422 7.09764V4.82031L4.18896 5.3802V7.65123Z" fill="#2C3338"/>
    <path d="M5.59424 7.64913L6.39947 7.08924V3.82422L5.59424 4.37784V7.64913Z" fill="#2C3338"/>
    <path d="M6.99951 3.40515V7.65156L7.81104 7.09167V2.85156L6.99951 3.40515Z" fill="#2C3338"/>
    <rect x="9" y="6" width="12" height="12" rx="1.33917" fill="white"/>
    <path d="M19.875 12.0495C19.875 13.3173 18.8456 14.3488 17.5803 14.3488C16.7383 14.3488 16.0249 13.8514 15.5192 13.3472C15.7998 13.0207 16.1417 12.504 16.1885 12.4449C16.5645 12.8474 17.0709 13.2419 17.5806 13.2419C17.7629 13.2419 17.9361 13.2005 18.0909 13.1266H18.0915L18.8812 13.3538L18.6622 12.5469V12.5463C18.7316 12.3951 18.7705 12.2264 18.7705 12.0495C18.7705 11.7209 18.6368 11.4224 18.4216 11.2064C18.2065 10.9906 17.9086 10.8566 17.5806 10.8566H17.58C17.1044 10.8566 16.5156 11.3482 16.0877 11.8129C15.906 12.0103 15.4712 12.6362 15.2696 12.8879C14.7879 13.4893 13.9049 14.3491 12.7947 14.3491C12.7908 14.3491 12.7875 14.3479 12.7838 14.3479C11.5233 14.3421 10.5 13.3137 10.5 12.0495C10.5 10.7854 11.5294 9.7506 12.7947 9.7506C13.6433 9.7506 14.3655 10.2636 14.8737 10.7736C14.5996 11.0796 14.2348 11.612 14.1956 11.6669C13.8162 11.2604 13.3038 10.8569 12.7947 10.8569C12.1386 10.8569 11.6048 11.3923 11.6048 12.0498C11.6048 12.227 11.6434 12.3951 11.7131 12.5463L11.4934 13.3541L12.2844 13.1263C12.4392 13.2008 12.6118 13.2422 12.7947 13.2422V13.2428C13.3898 13.2428 13.9801 12.7074 14.3621 12.2487C14.5197 12.0598 14.9394 11.4406 15.1875 11.1584C15.7072 10.5669 16.6025 9.75 17.5797 9.75C17.5803 9.75 17.5803 9.7506 17.5809 9.7506C18.8462 9.75121 19.875 10.7818 19.875 12.0498V12.0495Z" fill="#2C3338"/>
    <path d="M13.3876 12.226C13.4854 12.226 13.5647 12.1465 13.5647 12.0485C13.5647 11.9505 13.4854 11.8711 13.3876 11.8711C13.2898 11.8711 13.2104 11.9505 13.2104 12.0485C13.2104 12.1465 13.2898 12.226 13.3876 12.226Z" fill="#2C3338"/>
    <path d="M12.8344 12.226C12.9322 12.226 13.0115 12.1465 13.0115 12.0485C13.0115 11.9505 12.9322 11.8711 12.8344 11.8711C12.7365 11.8711 12.6572 11.9505 12.6572 12.0485C12.6572 12.1465 12.7365 12.226 12.8344 12.226Z" fill="#2C3338"/>
    <path d="M12.2816 12.226C12.3795 12.226 12.4588 12.1465 12.4588 12.0485C12.4588 11.9505 12.3795 11.8711 12.2816 11.8711C12.1838 11.8711 12.1045 11.9505 12.1045 12.0485C12.1045 12.1465 12.1838 12.226 12.2816 12.226Z" fill="#2C3338"/>
    <path d="M18.0927 12.226C18.1905 12.226 18.2698 12.1465 18.2698 12.0485C18.2698 11.9505 18.1905 11.8711 18.0927 11.8711C17.9948 11.8711 17.9155 11.9505 17.9155 12.0485C17.9155 12.1465 17.9948 12.226 18.0927 12.226Z" fill="#2C3338"/>
    <path d="M17.5399 12.226C17.6378 12.226 17.7171 12.1465 17.7171 12.0485C17.7171 11.9505 17.6378 11.8711 17.5399 11.8711C17.4421 11.8711 17.3628 11.9505 17.3628 12.0485C17.3628 12.1465 17.4421 12.226 17.5399 12.226Z" fill="#2C3338"/>
    <path d="M16.9867 12.226C17.0845 12.226 17.1639 12.1465 17.1639 12.0485C17.1639 11.9505 17.0845 11.8711 16.9867 11.8711C16.8889 11.8711 16.8096 11.9505 16.8096 12.0485C16.8096 12.1465 16.8889 12.226 16.9867 12.226Z" fill="#2C3338"/>
</svg>
