<svg width="152" height="32" viewBox="0 0 152 32" fill="none" xmlns="http://www.w3.org/2000/svg">
    <path d="M151.42 19.2753C151.42 22.5274 150.131 25.647 147.836 27.9509C145.541 30.2548 142.426 31.5552 139.174 31.5673C134.674 31.5673 130.874 28.9083 128.174 26.2183C129.674 24.4793 131.497 21.7183 131.743 21.4013C133.751 23.5543 136.455 25.6583 139.177 25.6583C140.122 25.6592 141.055 25.4491 141.908 25.0433L146.124 26.2543L144.954 21.9473C145.396 20.9785 145.588 19.9142 145.513 18.852C145.437 17.7897 145.097 16.7632 144.523 15.8663C143.949 14.9694 143.159 14.2306 142.226 13.7176C141.293 13.2046 140.246 12.9336 139.181 12.9293C136.641 12.9293 133.5 15.5563 131.214 18.0293C130.244 19.0853 127.923 22.4293 126.848 23.7703C124.276 26.9573 119.564 31.5703 113.648 31.5703H113.589C110.459 31.3798 107.52 30.0001 105.374 27.7138C103.228 25.4274 102.036 22.4073 102.044 19.2715C102.052 16.1357 103.257 13.1213 105.414 10.8454C107.572 8.56938 110.517 7.20388 113.648 7.02834C118.178 7.02834 122.034 9.75934 124.748 12.4913C123.454 14.0193 122.239 15.6117 121.106 17.2623C119.085 15.0903 116.349 12.9373 113.631 12.9373C111.941 12.9373 110.32 13.6088 109.124 14.804C107.929 15.9991 107.258 17.6201 107.258 19.3103C107.257 20.2255 107.456 21.1298 107.841 21.9603L106.666 26.2713L110.891 25.0553C111.743 25.465 112.676 25.6766 113.622 25.6743C116.809 25.6743 119.95 22.8153 121.989 20.3663C122.831 19.3553 125.071 16.0503 126.396 14.5433C129.168 11.3883 133.949 7.02734 139.166 7.02734C142.412 7.03577 145.524 8.32824 147.821 10.6226C150.118 12.9169 151.414 16.0268 151.426 19.2733L151.42 19.2753Z" fill="#1D5881"/>
    <path d="M116.906 20.2534C117.429 20.2534 117.853 19.8294 117.853 19.3064C117.853 18.7834 117.429 18.3594 116.906 18.3594C116.383 18.3594 115.959 18.7834 115.959 19.3064C115.959 19.8294 116.383 20.2534 116.906 20.2534Z" fill="#1D5881"/>
    <path d="M113.963 20.2534C114.486 20.2534 114.91 19.8294 114.91 19.3064C114.91 18.7834 114.486 18.3594 113.963 18.3594C113.44 18.3594 113.016 18.7834 113.016 19.3064C113.016 19.8294 113.44 20.2534 113.963 20.2534Z" fill="#1D5881"/>
    <path d="M111.016 20.2534C111.539 20.2534 111.963 19.8294 111.963 19.3064C111.963 18.7834 111.539 18.3594 111.016 18.3594C110.493 18.3594 110.069 18.7834 110.069 19.3064C110.069 19.8294 110.493 20.2534 111.016 20.2534Z" fill="#1D5881"/>
    <path d="M141.91 20.2534C142.433 20.2534 142.857 19.8294 142.857 19.3064C142.857 18.7834 142.433 18.3594 141.91 18.3594C141.387 18.3594 140.963 18.7834 140.963 19.3064C140.963 19.8294 141.387 20.2534 141.91 20.2534Z" fill="#1D5881"/>
    <path d="M138.955 20.2534C139.478 20.2534 139.902 19.8294 139.902 19.3064C139.902 18.7834 139.478 18.3594 138.955 18.3594C138.432 18.3594 138.008 18.7834 138.008 19.3064C138.008 19.8294 138.432 20.2534 138.955 20.2534Z" fill="#1D5881"/>
    <path d="M136.005 20.2534C136.528 20.2534 136.952 19.8294 136.952 19.3064C136.952 18.7834 136.528 18.3594 136.005 18.3594C135.482 18.3594 135.058 18.7834 135.058 19.3064C135.058 19.8294 135.482 20.2534 136.005 20.2534Z" fill="#1D5881"/>
    <path d="M7.284 1.625V25.915H16.844V31.535H0V1.625H7.284Z" fill="#1D5881"/>
    <path d="M30.9156 31.8806C23.9226 31.8806 18.8926 27.1806 18.8926 19.6166C18.8926 12.0526 23.8366 7.35156 30.9156 7.35156C37.8676 7.35156 42.7516 11.9676 42.7516 19.2286C42.7512 19.9438 42.7088 20.6583 42.6246 21.3686H26.1406C26.3956 24.4866 28.3166 25.9206 30.6616 25.9206C31.455 25.9705 32.2446 25.776 32.924 25.3633C33.6035 24.9506 34.1401 24.3396 34.4616 23.6126H42.1926C41.0676 28.2886 36.8426 31.8806 30.9156 31.8806ZM26.1816 17.3126H35.3096C35.3096 14.7036 33.2606 13.2126 30.8296 13.2126C29.6767 13.1646 28.5499 13.5634 27.6839 14.326C26.818 15.0885 26.2798 16.1559 26.1816 17.3056V17.3126Z" fill="#1D5881"/>
    <path d="M55.5148 7.3546C56.9561 7.28073 58.3916 7.58509 59.6788 8.23749C60.966 8.88988 62.0603 9.8676 62.8528 11.0736V7.6956H70.1368V31.5376H62.8528V28.1646C62.0476 29.3668 60.9456 30.3409 59.6536 30.9924C58.3616 31.6439 56.9233 31.9509 55.4778 31.8836C49.6778 31.8836 45.0068 27.0946 45.0068 19.5916C45.0068 12.0886 49.6738 7.3546 55.5148 7.3546ZM57.6498 13.7276C54.9188 13.7276 52.4498 15.7766 52.4498 19.5776C52.4498 23.3786 54.9218 25.4956 57.6498 25.4956C60.3778 25.4956 62.8498 23.4016 62.8498 19.5956C62.8498 15.7896 60.4138 13.7186 57.6498 13.7186V13.7276Z" fill="#1D5881"/>
    <path d="M83.5735 7.415C85 7.37372 86.4148 7.68343 87.6936 8.31689C88.9724 8.95035 90.076 9.88819 90.9075 11.048V0H98.1915V31.54H90.9075V28.131C90.122 29.3451 89.0307 30.331 87.7433 30.9894C86.4558 31.6479 85.0177 31.9557 83.5735 31.882C77.7325 31.882 73.1025 27.105 73.1025 19.622C73.1025 12.139 77.7325 7.415 83.5735 7.415ZM85.7085 13.772C82.9775 13.772 80.5085 15.815 80.5085 19.607C80.5085 23.399 82.9805 25.507 85.7085 25.507C88.4365 25.507 90.9085 23.418 90.9085 19.627C90.9085 15.836 88.4775 13.765 85.7085 13.765V13.772Z" fill="#1D5881"/>
</svg>
